HIERARCHY
ROOT reference
{
  OFFSET 0 0 0
  CHANNELS 6 Xposition Yposition Zposition Zrotation Xrotation Yrotation
  JOINT Hips
  {
    OFFSET 366.965 89.8555 201.872
    CHANNELS 3 Zrotation Xrotation Yrotation
    JOINT RightUpLeg
    {
      OFFSET -9.27238 -1.56811 0.0123499
      CHANNELS 3 Zrotation Xrotation Yrotation
      JOINT RightLeg
      {
        OFFSET 0.00682797 -41.8882 0.0419786
        CHANNELS 3 Zrotation Xrotation Yrotation
        JOINT RightFoot
        {
          OFFSET 0.530869 -42.1265 0.242224
          CHANNELS 3 Zrotation Xrotation Yrotation
          End Site
          {
            OFFSET 0 -7.69 17.5
          }
        }
      }
    }
    JOINT LeftUpLeg
    {
      OFFSET 9.28391 -1.61639 -0.0258413
      CHANNELS 3 Zrotation Xrotation Yrotation
      JOINT LeftLeg
      {
        OFFSET 0.0291166 -41.8727 -0.014263
        CHANNELS 3 Zrotation Xrotation Yrotation
        JOINT LeftFoot
        {
          OFFSET -0.125672 -41.4933 -0.195947
          CHANNELS 3 Zrotation Xrotation Yrotation
          End Site
          {
            OFFSET 0 -7.69 17.5
          }
        }
      }
    }
    JOINT Spine
    {
      OFFSET 0.0325614 14.2957 0.0242834
      CHANNELS 3 Zrotation Xrotation Yrotation
      JOINT Spine1
      {
        OFFSET 0.00746153 9.71731 0.0172653
        CHANNELS 3 Zrotation Xrotation Yrotation
        JOINT Spine2
        {
          OFFSET 0.0283815 10.1155 -0.00252583
          CHANNELS 3 Zrotation Xrotation Yrotation
          JOINT Spine3
          {
            OFFSET 0.0279172 9.71841 -0.00465252
            CHANNELS 3 Zrotation Xrotation Yrotation
            JOINT Neck
            {
              OFFSET 0.0182001 10.3765 0.0184284
              CHANNELS 3 Zrotation Xrotation Yrotation
              JOINT Head
              {
                OFFSET 0.0113688 9.47343 0.00632939
                CHANNELS 3 Zrotation Xrotation Yrotation
                End Site
                {
                  OFFSET 0 15.95 0
                }
              }
            }
            JOINT RightShoulder
            {
              OFFSET -3.17351 6.93492 0.00767284
              CHANNELS 3 Zrotation Xrotation Yrotation
              JOINT RightArm
              {
                OFFSET -12.7835 -0.0133269 0.0174019
                CHANNELS 3 Zrotation Xrotation Yrotation
                JOINT RightForeArm
                {
                  OFFSET -26.5112 -0.0170228 0.0247955
                  CHANNELS 3 Zrotation Xrotation Yrotation
                  JOINT RightHand
                  {
                    OFFSET -25.9918 -0.0199622 0.0218897
                    CHANNELS 3 Zrotation Xrotation Yrotation
                    JOINT RightHandThumb1
                    {
                      OFFSET -2.48905 0.190105 3.12053
                      CHANNELS 3 Zrotation Xrotation Yrotation
                      JOINT RightHandThumb2
                      {
                        OFFSET -3.68274 0 0
                        CHANNELS 3 Zrotation Xrotation Yrotation
                        JOINT RightHandThumb3
                        {
                          OFFSET -2.55832 0 0
                          CHANNELS 3 Zrotation Xrotation Yrotation
                          End Site
                          {
                            OFFSET -2.194 0 0
                          }
                        }
                      }
                    }
                    JOINT RightInHandIndex
                    {
                      OFFSET -3.22368 0.508421 1.97842
                      CHANNELS 3 Zrotation Xrotation Yrotation
                      JOINT RightHandIndex1
                      {
                        OFFSET -5.21684 -0.091368 0.999158
                        CHANNELS 3 Zrotation Xrotation Yrotation
                        JOINT RightHandIndex2
                        {
                          OFFSET -3.61937 0 0
                          CHANNELS 3 Zrotation Xrotation Yrotation
                          JOINT RightHandIndex3
                          {
                            OFFSET -2.0521 0 0
                            CHANNELS 3 Zrotation Xrotation Yrotation
                            End Site
                            {
                              OFFSET -1.805 0 0
                            }
                          }
                        }
                      }
                    }
                    JOINT RightInHandMiddle
                    {
                      OFFSET -3.38211 0.517263 0.756737
                      CHANNELS 3 Zrotation Xrotation Yrotation
                      JOINT RightHandMiddle1
                      {
                        OFFSET -5.17411 -0.084 0.313895
                        CHANNELS 3 Zrotation Xrotation Yrotation
                        JOINT RightHandMiddle2
                        {
                          OFFSET -3.94947 0 0
                          CHANNELS 3 Zrotation Xrotation Yrotation
                          JOINT RightHandMiddle3
                          {
                            OFFSET -2.47579 0 0
                            CHANNELS 3 Zrotation Xrotation Yrotation
                            End Site
                            {
                              OFFSET -1.975 0 0
                            }
                          }
                        }
                      }
                    }
                    JOINT RightInHandRing
                    {
                      OFFSET -3.36516 0.537895 -0.128947
                      CHANNELS 3 Zrotation Xrotation Yrotation
                      JOINT RightHandRing1
                      {
                        OFFSET -4.63474 -0.022105 -0.478947
                        CHANNELS 3 Zrotation Xrotation Yrotation
                        JOINT RightHandRing2
                        {
                          OFFSET -3.44238 0 0
                          CHANNELS 3 Zrotation Xrotation Yrotation
                          JOINT RightHandRing3
                          {
                            OFFSET -2.3881 0 0
                            CHANNELS 3 Zrotation Xrotation Yrotation
                            End Site
                            {
                              OFFSET -1.857 0 0
                            }
                          }
                        }
                      }
                    }
                    JOINT RightInHandPinky
                    {
                      OFFSET -3.16105 0.469368 -1.20179
                      CHANNELS 3 Zrotation Xrotation Yrotation
                      JOINT RightHandPinky1
                      {
                        OFFSET -4.14105 -0.022105 -1.09053
                        CHANNELS 3 Zrotation Xrotation Yrotation
                        JOINT RightHandPinky2
                        {
                          OFFSET -2.75653 0 0
                          CHANNELS 3 Zrotation Xrotation Yrotation
                          JOINT RightHandPinky3
                          {
                            OFFSET -1.74189 0 0
                            CHANNELS 3 Zrotation Xrotation Yrotation
                            End Site
                            {
                              OFFSET -1.645 0 0
                            }
                          }
                        }
                      }
                    }
                  }
                }
              }
            }
            JOINT LeftShoulder
            {
              OFFSET 3.23633 6.91116 -0.0162332
              CHANNELS 3 Zrotation Xrotation Yrotation
              JOINT LeftArm
              {
                OFFSET 12.8112 -0.0136289 -0.0286256
                CHANNELS 3 Zrotation Xrotation Yrotation
                JOINT LeftForeArm
                {
                  OFFSET 26.502 -0.0235899 -0.00806802
                  CHANNELS 3 Zrotation Xrotation Yrotation
                  JOINT LeftHand
                  {
                    OFFSET 25.9974 -0.0321613 -0.027004
                    CHANNELS 3 Zrotation Xrotation Yrotation
                    JOINT LeftHandThumb1
                    {
                      OFFSET 2.48905 0.190105 3.12053
                      CHANNELS 3 Zrotation Xrotation Yrotation
                      JOINT LeftHandThumb2
                      {
                        OFFSET 3.68274 0 0
                        CHANNELS 3 Zrotation Xrotation Yrotation
                        JOINT LeftHandThumb3
                        {
                          OFFSET 2.55832 0 0
                          CHANNELS 3 Zrotation Xrotation Yrotation
                          End Site
                          {
                            OFFSET 2.194 0 0
                          }
                        }
                      }
                    }
                    JOINT LeftInHandIndex
                    {
                      OFFSET 3.22368 0.508421 1.97842
                      CHANNELS 3 Zrotation Xrotation Yrotation
                      JOINT LeftHandIndex1
                      {
                        OFFSET 5.21684 -0.091368 0.999158
                        CHANNELS 3 Zrotation Xrotation Yrotation
                        JOINT LeftHandIndex2
                        {
                          OFFSET 3.61937 0 0
                          CHANNELS 3 Zrotation Xrotation Yrotation
                          JOINT LeftHandIndex3
                          {
                            OFFSET 2.0521 0 0
                            CHANNELS 3 Zrotation Xrotation Yrotation
                            End Site
                            {
                              OFFSET 1.805 0 0
                            }
                          }
                        }
                      }
                    }
                    JOINT LeftInHandMiddle
                    {
                      OFFSET 3.38211 0.517263 0.756737
                      CHANNELS 3 Zrotation Xrotation Yrotation
                      JOINT LeftHandMiddle1
                      {
                        OFFSET 5.17411 -0.084 0.313895
                        CHANNELS 3 Zrotation Xrotation Yrotation
                        JOINT LeftHandMiddle2
                        {
                          OFFSET 3.94947 0 0
                          CHANNELS 3 Zrotation Xrotation Yrotation
                          JOINT LeftHandMiddle3
                          {
                            OFFSET 2.47579 0 0
                            CHANNELS 3 Zrotation Xrotation Yrotation
                            End Site
                            {
                              OFFSET 1.975 0 0
                            }
                          }
                        }
                      }
                    }
                    JOINT LeftInHandRing
                    {
                      OFFSET 3.36516 0.537895 -0.128947
                      CHANNELS 3 Zrotation Xrotation Yrotation
                      JOINT LeftHandRing1
                      {
                        OFFSET 4.63474 -0.022105 -0.478947
                        CHANNELS 3 Zrotation Xrotation Yrotation
                        JOINT LeftHandRing2
                        {
                          OFFSET 3.44238 0 0
                          CHANNELS 3 Zrotation Xrotation Yrotation
                          JOINT LeftHandRing3
                          {
                            OFFSET 2.3881 0 0
                            CHANNELS 3 Zrotation Xrotation Yrotation
                            End Site
                            {
                              OFFSET 1.857 0 0
                            }
                          }
                        }
                      }
                    }
                    JOINT LeftInHandPinky
                    {
                      OFFSET 3.16105 0.469368 -1.20179
                      CHANNELS 3 Zrotation Xrotation Yrotation
                      JOINT LeftHandPinky1
                      {
                        OFFSET 4.14105 -0.022105 -1.09053
                        CHANNELS 3 Zrotation Xrotation Yrotation
                        JOINT LeftHandPinky2
                        {
                          OFFSET 2.75653 0 0
                          CHANNELS 3 Zrotation Xrotation Yrotation
                          JOINT LeftHandPinky3
                          {
                            OFFSET 1.74189 0 0
                            CHANNELS 3 Zrotation Xrotation Yrotation
                            End Site
                            {
                              OFFSET 1.645 0 0
                            }
                          }
                        }
                      }
                    }
                  }
                }
              }
            }
          }
        }
      }
    }
  }
}
MOTION
Frames:	4
Frame Time:	0.00833333
0 0 0 0 0 -0 24.3883 2.45748 -130.419 36.96 -35.5114 31.3792 -6.94331 14.7427 1.26503 5.94432 9.18975 51.9391 36.1607 -15.9096 18.888 -25.0706 41.6535 29.784 -4.71409 -30.6102 4.50998 -7.0656 -3.90829 -15.015 -1.67552 -1.34113 -3.6454 -2.79323 -2.31296 -5.87286 -0.50149 -0.245664 2.70004 -0.443193 -4.45701 37.0979 -8.31648 6.90713 27.8906 3.15279 1.54168 3.69754 17.9408 -63.1826 -14.2645 19.4633 -10.9776 123.897 1.67012 -25.5066 7.26565 28.184 10.7294 19.1592 1.56549e-14 6.36111e-15 -10 1.72719e-15 6.36111e-15 -10 -3.57812e-15 -4.77083e-15 6.36111e-15 19.9818 0.871897 2.3964 24 -3.18055e-15 4.37326e-15 20 0 1.11319e-14 -3.57812e-15 -4.77083e-15 6.36111e-15 20 0 -4.77083e-15 24 9.54166e-15 3.37934e-15 20 6.36111e-15 4.77083e-15 -3.57812e-15 -4.77083e-15 6.36111e-15 19.9748 -1.02565 -2.81938 24 -3.18055e-15 -7.15625e-15 20 0 1.27222e-14 -3.57812e-15 -4.77083e-15 6.36111e-15 19.7815 -3.00948 -8.30515 24 6.36111e-15 9.54166e-15 20 1.11319e-14 -4.77083e-15 6.00855 -22.53 -50.5806 -14.1471 23.9354 -114.009 32.9061 -13.881 -37.3324 -33.2697 -8.74967 -18.2588 -28.184 10.7294 -19.1592 1.30058e-15 6.36111e-15 10 5.96607e-15 -6.36111e-15 10 8.94531e-15 -3.97569e-15 -1.59028e-15 -19.9818 0.871897 -2.3964 -24 0 -7.95139e-16 -20 -3.18055e-15 3.72721e-15 8.94531e-15 -3.97569e-15 -1.59028e-15 -20 3.18055e-15 7.95139e-15 -24 7.95139e-15 7.95139e-15 -20 -3.18055e-15 3.47873e-15 8.94531e-15 -3.97569e-15 -1.59028e-15 -19.9748 -1.02565 2.81938 -24 0 -1.59028e-15 -20 0 -5.96354e-15 8.94531e-15 -3.97569e-15 -1.59028e-15 -19.7815 -3.00948 8.30515 -24 0 9.14409e-15 -20 0 -6.36111e-15 
0 0 0 0 0 -0 24.5206 2.62372 -130.21 37.0361 -35.6642 31.3615 -6.91104 14.7566 1.31241 6.53801 9.07852 51.4559 36.3962 -16.375 19.0885 -24.9713 42.0797 29.5968 -4.56859 -30.5257 4.5808 -6.97607 -3.89831 -14.9842 -1.65348 -1.33206 -3.63954 -2.75702 -2.29597 -5.86588 -0.500397 -0.242699 2.70023 -0.462271 -4.3994 36.9473 -8.30394 6.8808 27.9676 3.24539 1.5882 3.61091 18.3764 -63.1606 -14.0653 19.6892 -10.8612 123.912 1.37325 -26.5168 7.15126 28.184 10.7294 19.1592 1.1236e-14 -9.54166e-15 -10 7.75982e-15 -6.36111e-15 -10 -2.38542e-15 0 4.77083e-15 19.9818 0.871897 2.3964 24 -3.18055e-15 1.78906e-15 20 3.18055e-15 8.74653e-15 -2.38542e-15 0 4.77083e-15 20 3.18055e-15 -7.95139e-15 24 6.36111e-15 1.63997e-15 20 6.36111e-15 6.36111e-15 -2.38542e-15 0 4.77083e-15 19.9748 -1.02565 -2.81938 24 0 -8.74653e-15 20 -4.77083e-15 1.27222e-14 -2.38542e-15 0 4.77083e-15 19.7815 -3.00948 -8.30515 24 1.59028e-15 8.74653e-15 20 7.95139e-15 -6.36111e-15 6.0115 -22.4178 -50.6505 -14.0615 24.009 -113.992 32.9198 -13.7353 -37.1252 -33.3013 -8.82514 -18.0127 -28.184 10.7294 -19.1592 -8.9491e-15 9.54166e-15 10 4.44073e-15 0 10 3.77691e-15 -3.97569e-15 -3.18055e-15 -19.9818 0.871897 -2.3964 -24 0 -0 -20 -9.54166e-15 3.18055e-15 3.77691e-15 -3.97569e-15 -3.18055e-15 -20 3.18055e-15 7.95139e-15 -24 4.77083e-15 8.74653e-15 -20 -1.59028e-15 1.68967e-15 3.77691e-15 -3.97569e-15 -3.18055e-15 -19.9748 -1.02565 2.81938 -24 0 -2.5842e-15 -20 1.59028e-15 -5.56597e-15 3.77691e-15 -3.97569e-15 -3.18055e-15 -19.7815 -3.00948 8.30515 -24 1.59028e-15 9.54166e-15 -20 0 -6.36111e-15 
0 0 0 0 0 -0 24.634 2.79462 -129.975 37.0852 -35.8273 31.3397 -6.86759 14.7864 1.36593 6.84931 9.02224 51.0689 36.6088 -16.6004 19.0235 -25.0335 42.1759 29.557 -4.42431 -30.4183 4.64059 -6.87989 -3.86043 -14.9617 -1.63049 -1.31631 -3.63871 -2.71906 -2.26837 -5.86508 -0.499189 -0.239736 2.69903 -0.474971 -4.35869 36.9116 -8.28443 6.85589 27.989 3.34438 1.61967 3.54249 18.9907 -63.114 -13.7259 19.878 -10.7667 123.965 1.38743 -26.6139 7.27653 28.184 10.7294 19.1592 1.69555e-14 0 -10 3.63332e-15 0 -10 -3.97569e-15 -4.77083e-15 4.77083e-15 19.9818 0.871897 2.3964 24 -3.18055e-15 -4.77083e-15 20 3.18055e-15 8.74653e-15 -3.97569e-15 -4.77083e-15 4.77083e-15 20 -3.18055e-15 -1.35174e-14 24 6.36111e-15 -1.44119e-15 20 6.36111e-15 3.97569e-15 -3.97569e-15 -4.77083e-15 4.77083e-15 19.9748 -1.02565 -2.81938 24 -3.18055e-15 -9.93923e-15 20 -1.59028e-15 1.27222e-14 -3.97569e-15 -4.77083e-15 4.77083e-15 19.7815 -3.00948 -8.30515 24 0 1.03368e-14 20 6.36111e-15 -1.59028e-15 6.06272 -22.3464 -50.5731 -13.9908 24.0877 -114.035 32.9133 -13.5965 -36.9369 -33.3154 -8.86858 -17.8877 -28.184 10.7294 -19.1592 -9.19568e-15 6.36111e-15 10 -5.60818e-16 3.18055e-15 10 4.96962e-15 -6.36111e-15 -4.77083e-15 -19.9818 0.871897 -2.3964 -24 -1.59028e-15 -3.18055e-15 -20 -3.18055e-15 -1.98785e-16 4.96962e-15 -6.36111e-15 -4.77083e-15 -20 6.36111e-15 7.95139e-15 -24 4.77083e-15 6.36111e-15 -20 0 3.47873e-15 4.96962e-15 -6.36111e-15 -4.77083e-15 -19.9748 -1.02565 2.81938 -24 0 -3.57812e-15 -20 1.59028e-15 -7.15625e-15 4.96962e-15 -6.36111e-15 -4.77083e-15 -19.7815 -3.00948 8.30515 -24 1.59028e-15 9.14409e-15 -20 7.95139e-16 -7.95139e-15 
0 0 0 0 0 -0 24.7645 2.99297 -129.695 37.1232 -36.0289 31.2953 -6.81126 14.827 1.40217 7.17081 8.96408 50.6814 36.833 -16.8389 18.897 -25.0982 42.2345 29.5309 -4.2691 -30.2761 4.70986 -6.77712 -3.81034 -14.9443 -1.60608 -1.29738 -3.63808 -2.67871 -2.23558 -5.86548 -0.496772 -0.236895 2.69777 -0.49047 -4.28496 36.8345 -8.23675 6.81454 28.0348 3.37298 1.6192 3.24475 19.0187 -63.1118 -13.7103 19.8866 -10.7625 123.968 1.19299 -27.3223 7.13327 28.184 10.7294 19.1592 1.99385e-14 3.18055e-15 -10 2.51169e-15 -6.36111e-15 -10 5.56597e-15 -4.77083e-15 3.18055e-15 19.9818 0.871897 2.3964 24 -3.18055e-15 3.97569e-15 20 9.54166e-15 8.74653e-15 5.56597e-15 -4.77083e-15 3.18055e-15 20 0 -1.11319e-14 24 6.36111e-15 3.77691e-15 20 6.36111e-15 4.77083e-15 5.56597e-15 -4.77083e-15 3.18055e-15 19.9748 -1.02565 -2.81938 24 3.18055e-15 -8.74653e-15 20 3.18055e-15 1.11319e-14 5.56597e-15 -4.77083e-15 3.18055e-15 19.7815 -3.00948 -8.30515 24 6.36111e-15 9.54166e-15 20 1.11319e-14 -3.18055e-15 6.07736 -22.2288 -50.6115 -13.9017 24.1492 -113.985 32.8959 -13.4497 -36.7094 -33.3597 -8.90736 -17.7708 -28.184 10.7294 -19.1592 -1.36822e-15 3.18055e-15 10 5.65183e-15 0 10 9.34288e-15 -3.97569e-15 -3.18055e-15 -19.9818 0.871897 -2.3964 -24 -1.59028e-15 -0 -20 -1.59028e-15 1.3418e-15 9.34288e-15 -3.97569e-15 -3.18055e-15 -20 1.59028e-15 9.54166e-15 -24 7.95139e-15 6.36111e-15 -20 0 6.95746e-16 9.34288e-15 -3.97569e-15 -3.18055e-15 -19.9748 -1.02565 2.81938 -24 0 -1.98785e-15 -20 0 -5.56597e-15 9.34288e-15 -3.97569e-15 -3.18055e-15 -19.7815 -3.00948 8.30515 -24 1.59028e-15 9.54166e-15 -20 -1.59028e-15 -6.36111e-15 
